<svg width="72" height="30" viewBox="0 0 72 30" fill="none" xmlns="http://www.w3.org/2000/svg">
<g clip-path="url(#clip0_72_729)">
<path d="M3.43446 3.17625C3.62166 2.25075 4.50726 1.5 5.40942 1.5H10.3141L6.23526 21.6173H1.33062C0.427738 21.6173 -0.152582 20.8673 0.0353376 19.941L3.43446 3.17625ZM19.7835 3.17625C19.9714 2.25075 20.8563 1.5 21.7585 1.5H26.6631L22.5843 21.6173H17.6797C16.7768 21.6173 16.1965 20.8673 16.3844 19.941L19.7835 3.17625ZM52.4823 3.17625C52.6695 2.25075 53.5537 1.5 54.4573 1.5H59.3619L55.2831 21.6173H50.3777C49.4749 21.6173 48.8953 20.8673 49.0832 19.941L52.4823 3.17625ZM28.2982 1.5H33.2029C34.1057 1.5 34.6861 2.25 34.4981 3.17625L31.099 19.941C30.9118 20.8673 30.0269 21.6173 29.1241 21.6173H24.2194L28.2982 1.5ZM60.997 1.5H65.9017C66.8045 1.5 67.3849 2.25 67.1969 3.17625L63.7971 19.941C63.6099 20.8673 62.7257 21.6173 61.8229 21.6173H56.9175L60.997 1.5ZM36.1333 3.17625C36.3205 2.25075 37.2046 1.5 38.1075 1.5H43.0129L38.9333 21.6173H34.0287C33.1258 21.6173 32.5455 20.8673 32.7341 19.941L36.1325 3.17625H36.1333ZM44.6473 1.5H49.5526C50.4555 1.5 51.0351 2.25 50.8472 3.17625L45.7489 28.3237C45.5602 29.2493 44.6761 30 43.7732 30H38.8678L44.6473 1.5ZM9.22974 14.9115H15.7695L14.75 19.941C14.5621 20.8673 13.6772 21.6173 12.775 21.6173H7.86966L9.22902 14.9122L9.22974 14.9115ZM32.0545 23.2943H38.5935L37.2341 30H32.3295C31.4259 30 30.8463 29.25 31.0342 28.3237L32.0545 23.2943ZM49.8053 24.8535L48.9773 28.938C48.9413 29.1135 48.8852 29.1615 48.7138 29.1615H48.3373C48.1659 29.1615 48.1285 29.1135 48.1645 28.938L48.9925 24.8535C49.0285 24.6788 49.0846 24.63 49.256 24.63H49.6325C49.8039 24.63 49.8413 24.6788 49.8053 24.8535ZM50.894 27.609H50.8169C50.7349 27.609 50.7061 27.633 50.6895 27.7178L50.4418 28.938C50.4058 29.1135 50.3489 29.1615 50.1783 29.1615H49.801C49.6304 29.1615 49.5929 29.1135 49.6282 28.938L50.4562 24.8535C50.4922 24.6788 50.5498 24.63 50.7205 24.63H51.4981C52.3937 24.63 52.7329 24.9622 52.5673 25.7775L52.429 26.4607C52.2634 27.2767 51.7897 27.609 50.894 27.609ZM51.1215 25.5847L50.9055 26.6543C50.8875 26.739 50.9062 26.763 50.989 26.763H51.1129C51.4009 26.763 51.5557 26.6423 51.6183 26.334L51.7047 25.905C51.7673 25.5975 51.6622 25.476 51.3735 25.476H51.2497C51.1676 25.476 51.1388 25.5 51.1215 25.5847ZM53.8129 26.2433L54.4249 26.9445C54.746 27.3067 54.7906 27.5242 54.7085 27.9292L54.6869 28.038C54.5321 28.7992 54.1635 29.2223 53.3089 29.2223C52.4549 29.2223 52.244 28.866 52.4413 27.8925L52.4657 27.7725C52.5017 27.597 52.5586 27.5482 52.7293 27.5482H53.1296C53.3009 27.5482 53.3384 27.597 53.3024 27.7717L53.2484 28.038C53.1994 28.2795 53.2743 28.3762 53.4802 28.3762C53.6869 28.3762 53.7992 28.2862 53.8438 28.0687L53.8669 27.9533C53.9014 27.7838 53.8827 27.6997 53.7056 27.5002L53.1296 26.8538C52.807 26.4975 52.766 26.2913 52.8481 25.8862L52.8747 25.7542C53.0295 24.993 53.3981 24.5692 54.2521 24.5692C55.1067 24.5692 55.3177 24.9263 55.1204 25.899L55.0959 26.0198C55.0599 26.1953 55.003 26.2433 54.8324 26.2433H54.4313C54.2607 26.2433 54.2233 26.1953 54.2585 26.0198L54.3125 25.7542C54.3615 25.512 54.2873 25.416 54.0807 25.416C53.8748 25.416 53.7617 25.506 53.7178 25.7235L53.6969 25.8263C53.6609 26.0018 53.6797 26.0865 53.8129 26.2433ZM57.2631 24.8535C57.2991 24.6788 57.3553 24.63 57.5266 24.63H57.9032C58.0745 24.63 58.112 24.6788 58.076 24.8535L57.4597 27.8933C57.2624 28.866 56.9074 29.2223 56.0528 29.2223C55.1989 29.2223 54.9879 28.866 55.1852 27.8925L55.8015 24.8535C55.8375 24.6788 55.8944 24.63 56.065 24.63H56.4423C56.6129 24.63 56.6504 24.6788 56.6151 24.8535L55.9693 28.038C55.9203 28.2795 56.0009 28.3762 56.2249 28.3762C56.4423 28.3762 56.5683 28.2795 56.6173 28.038L57.2631 24.8535ZM59.7154 27.3127C59.7176 27.3615 59.7327 27.3728 59.7622 27.3728C59.791 27.3728 59.8119 27.3615 59.8335 27.3127L60.8516 24.7875C60.9013 24.66 60.9603 24.63 61.1079 24.63H61.6796C61.8502 24.63 61.8877 24.6788 61.8524 24.8535L61.0244 28.938C60.9884 29.1135 60.9308 29.1615 60.7601 29.1615H60.4894C60.3188 29.1615 60.2806 29.1135 60.3166 28.938L60.7141 26.9805C60.7249 26.9265 60.7155 26.9137 60.6802 26.9137C60.6565 26.9137 60.6298 26.9265 60.6154 26.9685L59.7932 28.9627C59.7341 29.1075 59.6585 29.1615 59.4879 29.1615H59.3281C59.1509 29.1615 59.0977 29.1075 59.0977 28.9627L59.0775 26.9678C59.0739 26.9258 59.0645 26.9137 59.035 26.9137C58.9997 26.9137 58.9853 26.9265 58.9745 26.9805L58.5778 28.938C58.5418 29.1135 58.4857 29.1615 58.3143 29.1615H58.0436C57.8722 29.1615 57.8348 29.1135 57.8708 28.938L58.6988 24.8535C58.7348 24.6788 58.7917 24.63 58.9623 24.63H59.4519C59.6578 24.63 59.7241 24.6788 59.7226 24.8903L59.7147 27.3127H59.7154ZM72.0001 1.5C72.0001 2.32875 71.3593 3 70.5694 3C70.3809 2.99941 70.1944 2.96014 70.0204 2.88443C69.8465 2.80872 69.6886 2.69805 69.5558 2.55875C69.4229 2.41945 69.3177 2.25425 69.2462 2.07259C69.1746 1.89093 69.1381 1.69636 69.1388 1.5C69.1388 0.67125 69.7796 0 70.5694 0C71.3593 0 72.0001 0.67125 72.0001 1.5Z" fill="#82929A"/>
</g>
<defs>
<clipPath id="clip0_72_729">
<rect width="72" height="30" fill="white"/>
</clipPath>
</defs>
</svg>
