<svg width="90" height="35" viewBox="0 0 90 35" fill="none" xmlns="http://www.w3.org/2000/svg">
<g clip-path="url(#clip0_72_1090)">
<path d="M41.2595 30.8333H43.6033V21.8083H41.2595V30.8333ZM41.2595 20.4009H43.6033V18.2546H41.2595V20.4009Z" fill="#82929A"/>
<path d="M45.1135 33.7889H47.4573V29.813H47.4918C47.9916 30.587 48.8016 31.0972 50.0424 31.0972C52.3172 31.0972 53.8682 29.25 53.8682 26.3296C53.8682 23.5147 52.3689 21.562 50.0251 21.562C48.8188 21.562 47.9916 22.1426 47.4228 22.9342H47.3712V21.8083H45.1135V33.7889ZM49.5426 29.1092C48.1467 29.1092 47.4056 28.0361 47.4056 26.4C47.4056 24.7815 47.9916 23.4972 49.4564 23.4972C50.904 23.4972 51.49 24.6935 51.49 26.4C51.49 28.1065 50.7318 29.1092 49.5426 29.1092Z" fill="#82929A"/>
<path d="M58.5434 31.0972C60.7492 31.0972 62.2658 30.0065 62.2658 28.1944C62.2658 26.0833 60.6286 25.6611 59.1465 25.3445C57.8884 25.0806 56.7165 25.0101 56.7165 24.2361C56.7165 23.5852 57.3197 23.2333 58.2332 23.2333C59.2327 23.2333 59.8359 23.5852 59.9392 24.5528H62.059C61.8867 22.7407 60.5942 21.562 58.2676 21.562C56.2513 21.562 54.6657 22.4944 54.6657 24.4471C54.6657 26.4176 56.2168 26.8574 57.8023 27.1741C59.0086 27.4203 60.1288 27.5083 60.1288 28.3704C60.1288 29.0037 59.5429 29.4083 58.5088 29.4083C57.4576 29.4083 56.7338 28.9509 56.5787 27.9129H54.4072C54.5451 29.8306 55.9755 31.0972 58.5434 31.0972Z" fill="#82929A"/>
<path d="M71.1644 30.8334V21.8083H68.8206V27.0157C68.8206 28.212 68.1485 29.0565 67.0456 29.0565C66.046 29.0565 65.5807 28.4759 65.5807 27.4203V21.8083H63.2542V27.825C63.2542 29.7954 64.3571 31.0797 66.3218 31.0797C67.5626 31.0797 68.2519 30.6046 68.8552 29.7778H68.9068V30.8334H71.1644Z" fill="#82929A"/>
<path d="M72.6804 30.8333H75.0243V25.5907C75.0243 24.3944 75.6619 23.6204 76.6097 23.6204C77.4714 23.6204 77.9712 24.1481 77.9712 25.1685V30.8333H80.315V25.5907C80.315 24.3944 80.9182 23.6204 81.9004 23.6204C82.7621 23.6204 83.2619 24.1481 83.2619 25.1685V30.8333H85.6057V24.7639C85.6057 22.7935 84.5544 21.562 82.6932 21.562C81.573 21.562 80.6424 22.1602 80.0393 23.1453H80.0048C79.5739 22.1953 78.6778 21.562 77.5576 21.562C76.334 21.562 75.4723 22.1953 74.9897 23.0222H74.9381V21.8083H72.6804V30.8333Z" fill="#82929A"/>
<path d="M41.2939 15.3755H43.6377V2.79675H41.2939V15.3755Z" fill="#82929A"/>
<path d="M49.3686 15.6394C52.1088 15.6394 53.9873 13.5635 53.9873 10.8718C53.9873 8.18012 52.1088 6.10419 49.3686 6.10419C46.6285 6.10419 44.75 8.18012 44.75 10.8718C44.75 13.5635 46.6285 15.6394 49.3686 15.6394ZM49.3686 13.8098C47.921 13.8098 47.1283 12.6311 47.1283 10.8718C47.1283 9.11252 47.921 7.91623 49.3686 7.91623C50.799 7.91623 51.609 9.11252 51.609 10.8718C51.609 12.6311 50.799 13.8098 49.3686 13.8098Z" fill="#82929A"/>
<path d="M58.9714 18.4543C60.2812 18.4543 61.4186 18.1376 62.1596 17.4339C62.8145 16.8181 63.2109 15.9561 63.2109 14.6894V6.35048H60.9533V7.30049H60.9188C60.3846 6.544 59.5746 6.10419 58.4716 6.10419C56.2313 6.10419 54.6458 7.82827 54.6458 10.52C54.6458 13.2468 56.576 14.8301 58.5406 14.8301C59.6608 14.8301 60.3329 14.3728 60.8499 13.7746H60.9016V14.7598C60.9016 15.9912 60.264 16.6422 58.937 16.6422C57.8512 16.6422 57.3515 16.2024 57.1619 15.6394H54.8354C55.0766 17.3987 56.5587 18.4543 58.9714 18.4543ZM58.937 12.9126C57.7306 12.9126 56.9378 12.0153 56.9378 10.4848C56.9378 8.97182 57.7306 8.02178 58.9197 8.02178C60.3329 8.02178 61.0222 9.14769 61.0222 10.4672C61.0222 11.8042 60.419 12.9126 58.937 12.9126Z" fill="#82929A"/>
<path d="M68.9079 15.6394C71.6481 15.6394 73.5266 13.5635 73.5266 10.8718C73.5266 8.18012 71.6481 6.10419 68.9079 6.10419C66.1678 6.10419 64.2893 8.18012 64.2893 10.8718C64.2893 13.5635 66.1678 15.6394 68.9079 15.6394ZM68.9079 13.8098C67.4603 13.8098 66.6675 12.6311 66.6675 10.8718C66.6675 9.11252 67.4603 7.91623 68.9079 7.91623C70.3383 7.91623 71.1483 9.11252 71.1483 10.8718C71.1483 12.6311 70.3383 13.8098 68.9079 13.8098Z" fill="#82929A"/>
<path d="M75.5811 11.9274H85.7143V9.86902H75.5811V11.9274Z" fill="#82929A"/>
<path d="M86.4575 20.2752C86.4575 19.8704 86.779 19.5422 87.1758 19.5422H88.6115C89.0084 19.5422 89.3298 19.8704 89.3298 20.2752C89.3298 20.68 89.0084 21.0082 88.6115 21.0082H87.1758C86.779 21.0082 86.4575 20.68 86.4575 20.2752Z" fill="#82929A"/>
<path fill-rule="evenodd" clip-rule="evenodd" d="M17.5899 0C27.0576 0 34.7327 7.83501 34.7327 17.5C34.7327 27.165 27.0576 35 17.5899 35C8.12214 35 0.447021 27.165 0.447021 17.5C0.447021 7.83501 8.12214 0 17.5899 0ZM16.9702 1.30952C15.0146 1.59048 13.1524 3.19469 11.7068 5.87773C11.2875 6.65598 10.9091 7.51578 10.5794 8.44414C12.545 7.9399 14.7042 7.64262 16.9702 7.59664V1.30952ZM9.13056 8.86445C9.54053 7.55088 10.0421 6.34235 10.621 5.26807C11.3375 3.93802 12.188 2.78946 13.1462 1.9073C7.9357 3.45208 3.82864 7.64469 2.3154 12.9637C3.17954 11.9856 4.30467 11.1174 5.60758 10.3859C6.65994 9.79501 7.8438 9.28296 9.13056 8.86445ZM8.71879 10.3435C8.22488 12.35 7.93367 14.5542 7.88863 16.8675H1.72981C2.00504 14.871 3.57652 12.97 6.2048 11.4944C6.96716 11.0663 7.80942 10.6801 8.71879 10.3435ZM9.12816 16.8675C9.17933 14.343 9.5353 11.973 10.1243 9.87893C12.1756 9.27763 14.4974 8.91415 16.9702 8.86191V11.5944C16.0477 14.0054 14.1661 15.926 11.8042 16.8675H9.12816ZM7.88863 18.1325H1.72981C2.00504 20.129 3.57652 22.03 6.2048 23.5056C6.96716 23.9337 7.80942 24.3199 8.71879 24.6565C8.22488 22.65 7.93367 20.4458 7.88863 18.1325ZM10.1243 25.1211C9.5353 23.027 9.17933 20.657 9.12816 18.1325H11.8042C14.1661 19.0739 16.0478 20.9946 16.9702 23.4056V26.1381C14.4974 26.0859 12.1756 25.7224 10.1243 25.1211ZM9.13056 26.1355C7.8438 25.717 6.65994 25.205 5.60758 24.6141C4.30467 23.8826 3.17954 23.0144 2.3154 22.0363C3.82864 27.3553 7.9357 31.548 13.1462 33.0927C12.188 32.2105 11.3375 31.062 10.621 29.7319C10.0421 28.6577 9.54053 27.4491 9.13056 26.1355ZM16.9702 33.6905C15.0146 33.4095 13.1524 31.8053 11.7068 29.1223C11.2875 28.344 10.9091 27.4842 10.5794 26.5559C12.545 27.0601 14.7042 27.3574 16.9702 27.4033V33.6905ZM22.0336 33.0927C22.9918 32.2105 23.8422 31.062 24.5589 29.7319C25.1376 28.6577 25.6392 27.4491 26.0492 26.1355C27.3359 25.717 28.5198 25.205 29.5722 24.6141C30.8751 23.8826 32.0002 23.0144 32.8643 22.0363C31.3511 27.3553 27.244 31.548 22.0336 33.0927ZM24.6004 26.5559C24.2706 27.4842 23.8923 28.344 23.473 29.1223C22.0275 31.8053 20.1652 33.4095 18.2095 33.6905V27.4033C20.4755 27.3574 22.6348 27.0601 24.6004 26.5559ZM26.461 24.6565C27.3703 24.3199 28.2126 23.9337 28.975 23.5056C31.6032 22.03 33.1747 20.129 33.4499 18.1325H27.2911C27.2461 20.4458 26.9548 22.65 26.461 24.6565ZM26.0517 18.1325C26.0005 20.657 25.6444 23.027 25.0554 25.1211C23.0041 25.7224 20.6824 26.0859 18.2095 26.1381V23.4076C19.1317 20.9957 21.0137 19.0742 23.3763 18.1325H26.0517ZM27.2911 16.8675H33.4499C33.1747 14.871 31.6032 12.97 28.975 11.4944C28.2126 11.0663 27.3703 10.6801 26.461 10.3435C26.9548 12.35 27.2461 14.5542 27.2911 16.8675ZM25.0554 9.87893C25.6444 11.973 26.0005 14.343 26.0517 16.8675H23.3763C21.0137 15.9258 19.1317 14.0043 18.2095 11.5924V8.86191C20.6824 8.91415 23.0041 9.27763 25.0554 9.87893ZM26.0492 8.86445C27.3359 9.28296 28.5198 9.79501 29.5722 10.3859C30.8751 11.1174 32.0002 11.9856 32.8643 12.9637C31.3511 7.64469 27.244 3.45208 22.0336 1.9073C22.9918 2.78946 23.8422 3.93802 24.5589 5.26807C25.1376 6.34235 25.6392 7.55088 26.0492 8.86445ZM18.2095 1.30952C20.1652 1.59048 22.0275 3.19469 23.473 5.87773C23.8923 6.65598 24.2706 7.51578 24.6004 8.44414C22.6348 7.9399 20.4755 7.64262 18.2095 7.59664V1.30952Z" fill="#82929A"/>
</g>
<defs>
<clipPath id="clip0_72_1090">
<rect width="90" height="35" fill="white"/>
</clipPath>
</defs>
</svg>
