<svg width="28" height="20" viewBox="0 0 28 20" fill="none" xmlns="http://www.w3.org/2000/svg">
<path d="M26.25 8.16602H1.75C0.783508 8.16602 0 8.94952 0 9.91602C0 10.8825 0.783508 11.666 1.75 11.666H26.25C27.2165 11.666 28 10.8825 28 9.91602C28 8.94952 27.2165 8.16602 26.25 8.16602Z" fill="black"/>
<path d="M1.75 3.5H26.25C27.2165 3.5 28 2.71649 28 1.75C28 0.783508 27.2165 0 26.25 0H1.75C0.783508 0 0 0.783508 0 1.75C0 2.71649 0.783508 3.5 1.75 3.5Z" fill="black"/>
<path d="M26.25 16.3335H1.75C0.783508 16.3335 0 17.117 0 18.0835C0 19.05 0.783508 19.8335 1.75 19.8335H26.25C27.2165 19.8335 28 19.05 28 18.0835C28 17.117 27.2165 16.3335 26.25 16.3335Z" fill="black"/>
</svg>
