<svg width="36" height="36" viewBox="0 0 36 36" fill="none" xmlns="http://www.w3.org/2000/svg">
<path d="M18 31.3493L25.4245 23.9246C29.5251 19.8242 29.5251 13.1759 25.4245 9.07538C21.3242 4.97487 14.6759 4.97487 10.5754 9.07538C6.47487 13.1759 6.47487 19.8242 10.5754 23.9246L18 31.3493ZM18 35.5919L8.45406 26.046C3.18198 20.7738 3.18198 12.2261 8.45406 6.95406C13.7261 1.68198 22.2738 1.68198 27.546 6.95406C32.8181 12.2261 32.8181 20.7738 27.546 26.046L18 35.5919ZM18 19.5C19.6569 19.5 21 18.1569 21 16.5C21 14.8431 19.6569 13.5 18 13.5C16.3431 13.5 15 14.8431 15 16.5C15 18.1569 16.3431 19.5 18 19.5ZM18 22.5C14.6863 22.5 12 19.8137 12 16.5C12 13.1863 14.6863 10.5 18 10.5C21.3137 10.5 24 13.1863 24 16.5C24 19.8137 21.3137 22.5 18 22.5Z" fill="white"/>
</svg>
