<svg xmlns="http://www.w3.org/2000/svg" width="129.563" height="34.758" viewBox="0 0 129.563 34.758">
  <path id="logo" d="M3.3,0V-33.609H13.43V-7.922H25.008V0ZM61.242-16.9a18.606,18.606,0,0,1-2.18,9.059,15.541,15.541,0,0,1-6.094,6.211A17.484,17.484,0,0,1,44.2.586,17.5,17.5,0,0,1,35.59-1.559a15.177,15.177,0,0,1-6.035-6.023A17.757,17.757,0,0,1,27.4-16.359a19.369,19.369,0,0,1,2.18-9.234,15.485,15.485,0,0,1,6.117-6.34,17.8,17.8,0,0,1,8.953-2.238,17.3,17.3,0,0,1,8.637,2.145,14.621,14.621,0,0,1,5.883,6.117A19.179,19.179,0,0,1,61.242-16.9Zm-10.734.281a11.666,11.666,0,0,0-1.594-6.539,4.979,4.979,0,0,0-4.359-2.391,5.512,5.512,0,0,0-4.711,2.3,10.81,10.81,0,0,0-1.687,6.492,10.685,10.685,0,0,0,1.676,6.4,5.346,5.346,0,0,0,4.559,2.3,5.219,5.219,0,0,0,3.164-1.031,6.605,6.605,0,0,0,2.18-2.953A12.218,12.218,0,0,0,50.508-16.617ZM95.438-2.2A21.671,21.671,0,0,1,89.766-.27a32.561,32.561,0,0,1-7.2.855q-8.836,0-13.641-4.418t-4.8-12.387a18.453,18.453,0,0,1,2.426-9.492,15.744,15.744,0,0,1,6.832-6.3,23.377,23.377,0,0,1,10.383-2.156,38.637,38.637,0,0,1,9.352,1.242v8.836a19.883,19.883,0,0,0-4.453-1.465A24.734,24.734,0,0,0,84-25.969a8.909,8.909,0,0,0-6.645,2.508,9.388,9.388,0,0,0-2.473,6.891,9.624,9.624,0,0,0,2.074,6.563,7.305,7.305,0,0,0,5.8,2.367,12.558,12.558,0,0,0,2.555-.187v-4.8H78.867V-20.3h16.57Zm37.43-14.7a18.606,18.606,0,0,1-2.18,9.059,15.541,15.541,0,0,1-6.094,6.211A17.484,17.484,0,0,1,115.828.586a17.5,17.5,0,0,1-8.613-2.145,15.177,15.177,0,0,1-6.035-6.023,17.757,17.757,0,0,1-2.156-8.777,19.369,19.369,0,0,1,2.18-9.234,15.485,15.485,0,0,1,6.117-6.34,17.8,17.8,0,0,1,8.953-2.238,17.3,17.3,0,0,1,8.637,2.145,14.621,14.621,0,0,1,5.883,6.117A19.179,19.179,0,0,1,132.867-16.9Zm-10.734.281a11.666,11.666,0,0,0-1.594-6.539,4.979,4.979,0,0,0-4.359-2.391,5.512,5.512,0,0,0-4.711,2.3,10.81,10.81,0,0,0-1.687,6.492,10.685,10.685,0,0,0,1.676,6.4,5.346,5.346,0,0,0,4.559,2.3,5.219,5.219,0,0,0,3.164-1.031,6.605,6.605,0,0,0,2.18-2.953A12.218,12.218,0,0,0,122.133-16.617Z" transform="translate(-3.305 34.172)" fill="#707070"/>
</svg>
