<svg width="40" height="40" viewBox="0 0 40 40" fill="none" xmlns="http://www.w3.org/2000/svg">
<rect width="40" height="40" rx="20" fill="#316FF6"/>
<path d="M23.616 21.2569L24.0475 18.4426H21.3474V16.6167C21.3277 16.4059 21.356 16.1934 21.4301 15.9951C21.5041 15.7968 21.6221 15.6178 21.7751 15.4715C21.9282 15.3252 22.1123 15.2154 22.3137 15.1504C22.5152 15.0853 22.7287 15.0667 22.9384 15.0958H24.1663V12.6971C23.4441 12.5814 22.7143 12.5189 21.9829 12.5099C21.4806 12.4717 20.9761 12.5444 20.5051 12.7228C20.0341 12.9013 19.6081 13.1811 19.2572 13.5425C18.9063 13.9039 18.6392 14.338 18.4748 14.8141C18.3104 15.2902 18.2526 15.7966 18.3057 16.2975V18.4426H15.833V21.2569H18.3047V28.06H21.3474V21.2569H23.616Z" fill="white"/>
</svg>
