<svg width="40" height="40" viewBox="0 0 40 40" fill="none" xmlns="http://www.w3.org/2000/svg">
<rect width="40" height="40" rx="20" fill="url(#paint0_radial_142_1147)"/>
<rect width="40" height="40" rx="20" fill="url(#paint1_radial_142_1147)"/>
<path d="M20.0038 15.7268C19.1587 15.7268 18.3327 15.9773 17.63 16.4467C16.9274 16.9161 16.3797 17.5833 16.0561 18.3639C15.7326 19.1446 15.6478 20.0036 15.8124 20.8324C15.977 21.6613 16.3836 22.4227 16.9809 23.0204C17.5782 23.6182 18.3393 24.0255 19.168 24.1907C19.9967 24.356 20.8558 24.2719 21.6367 23.949C22.4176 23.6261 23.0852 23.0789 23.5552 22.3766C24.0251 21.6743 24.2763 20.8485 24.277 20.0035C24.2784 19.4417 24.1688 18.8853 23.9546 18.366C23.7403 17.8468 23.4257 17.3749 23.0286 16.9776C22.6316 16.5802 22.16 16.2652 21.6409 16.0505C21.1218 15.8359 20.5655 15.7259 20.0038 15.7268ZM20.0038 22.7778C19.4542 22.7778 18.917 22.6148 18.4602 22.3094C18.0033 22.004 17.6472 21.57 17.4371 21.0622C17.227 20.5545 17.1722 19.9958 17.2796 19.4568C17.3871 18.9179 17.652 18.423 18.0408 18.0346C18.4296 17.6463 18.9249 17.382 19.464 17.2752C20.003 17.1684 20.5616 17.2239 21.0692 17.4347C21.5767 17.6454 22.0103 18.002 22.3151 18.4593C22.6199 18.9165 22.7822 19.4539 22.7815 20.0035C22.7791 20.7391 22.4856 21.4439 21.9651 21.9638C21.4446 22.4836 20.7394 22.7763 20.0038 22.7778ZM25.4482 15.5515C25.4482 15.7486 25.3897 15.9414 25.2801 16.1053C25.1706 16.2693 25.0149 16.3971 24.8327 16.4725C24.6505 16.548 24.4501 16.5677 24.2567 16.5293C24.0633 16.4908 23.8856 16.3958 23.7462 16.2564C23.6068 16.117 23.5118 15.9393 23.4734 15.7459C23.4349 15.5526 23.4546 15.3521 23.5301 15.1699C23.6056 14.9878 23.7333 14.832 23.8973 14.7225C24.0612 14.6129 24.254 14.5545 24.4512 14.5545C24.5822 14.5542 24.712 14.5798 24.8331 14.6297C24.9542 14.6797 25.0642 14.7532 25.1568 14.8458C25.2495 14.9384 25.3229 15.0485 25.3729 15.1696C25.4229 15.2907 25.4485 15.4204 25.4482 15.5515ZM28.2787 16.5633C28.3065 15.2676 27.8227 14.0132 26.9322 13.0716C25.9888 12.1847 24.7362 11.7016 23.4416 11.7251C22.0665 11.6472 17.9411 11.6472 16.5659 11.7251C15.2713 11.6996 14.018 12.1817 13.0742 13.0682C12.1848 14.0106 11.7005 15.2643 11.7254 16.5599C11.6475 17.935 11.6475 22.0604 11.7254 23.4356C11.6976 24.7313 12.1814 25.9857 13.0719 26.9273C14.0164 27.8148 15.2701 28.2983 16.5659 28.2749C17.9411 28.3528 22.0665 28.3528 23.4416 28.2749C24.7373 28.3027 25.9918 27.819 26.9333 26.9284C27.8189 25.9857 28.3016 24.7346 28.2787 23.4413C28.3566 22.0604 28.3566 17.9408 28.2787 16.5656V16.5633ZM26.5013 24.9127C26.3599 25.2711 26.1463 25.5966 25.8739 25.869C25.6015 26.1414 25.276 26.355 24.9176 26.4964C23.3025 26.8279 21.6501 26.9405 20.0049 26.831C18.3598 26.9388 16.7076 26.8262 15.0922 26.4964C14.7338 26.355 14.4083 26.1414 14.1359 25.869C13.8635 25.5966 13.6499 25.2711 13.5085 24.9127C13.1769 23.2988 13.064 21.6475 13.1728 20.0035C13.065 18.3583 13.1776 16.7061 13.5074 15.0908C13.6488 14.7324 13.8623 14.4069 14.1348 14.1345C14.4072 13.862 14.7327 13.6485 15.0911 13.5071C16.706 13.174 18.3584 13.0599 20.0038 13.1679C21.6489 13.0601 23.3011 13.1727 24.9164 13.5025C25.2748 13.6439 25.6003 13.8575 25.8728 14.1299C26.1452 14.4023 26.3587 14.7278 26.5001 15.0862C26.8317 16.7013 26.9442 18.3537 26.8348 19.9989C26.9445 21.6444 26.8319 23.2972 26.5001 24.9127H26.5013Z" fill="white"/>
<defs>
<radialGradient id="paint0_radial_142_1147" cx="0" cy="0" r="1" gradientUnits="userSpaceOnUse" gradientTransform="translate(10.6251 43.0808) rotate(-90) scale(39.643 36.8711)">
<stop stop-color="#FFDD55"/>
<stop offset="0.1" stop-color="#FFDD55"/>
<stop offset="0.5" stop-color="#FF543E"/>
<stop offset="1" stop-color="#C837AB"/>
</radialGradient>
<radialGradient id="paint1_radial_142_1147" cx="0" cy="0" r="1" gradientUnits="userSpaceOnUse" gradientTransform="translate(-6.70021 2.88153) rotate(78.6806) scale(17.7206 73.0449)">
<stop stop-color="#3771C8"/>
<stop offset="0.128" stop-color="#3771C8"/>
<stop offset="1" stop-color="#6600FF" stop-opacity="0"/>
</radialGradient>
</defs>
</svg>
