<svg width="40" height="40" viewBox="0 0 40 40" fill="none" xmlns="http://www.w3.org/2000/svg">
<rect width="40" height="40" rx="20" fill="#0077B5"/>
<path d="M15.8817 27.499H12.7739V17.4914H15.8817V27.499ZM14.3263 16.1259C13.9672 16.1286 13.6154 16.0245 13.3155 15.8269C13.0156 15.6293 12.7811 15.3471 12.6419 15.016C12.5026 14.685 12.4648 14.3201 12.5332 13.9675C12.6017 13.6149 12.7733 13.2906 13.0263 13.0358C13.2793 12.7809 13.6023 12.6069 13.9543 12.5358C14.3064 12.4648 14.6716 12.4999 15.0037 12.6367C15.3357 12.7735 15.6197 13.0059 15.8195 13.3043C16.0193 13.6027 16.126 13.9538 16.126 14.3129C16.126 14.7915 15.9368 15.2506 15.5997 15.5902C15.2626 15.9298 14.8049 16.1224 14.3263 16.1259ZM27.5134 27.499H24.4123V22.6278C24.4123 21.4666 24.3884 19.978 22.7968 19.978C21.1813 19.978 20.9332 21.2395 20.9332 22.5448V27.5H17.8292V17.4914H20.8092V18.8568H20.8531C21.1511 18.3465 21.5821 17.9266 22.1 17.6419C22.6179 17.3573 23.2033 17.2185 23.7939 17.2404C26.9428 17.2404 27.5153 19.312 27.5153 22.0019V27.499H27.5134Z" fill="white"/>
</svg>
