<svg width="40" height="40" viewBox="0 0 40 40" fill="none" xmlns="http://www.w3.org/2000/svg">
<rect width="40" height="40" rx="20" fill="#FF0000"/>
<path d="M30.7711 14.9167C30.5167 13.9718 29.7717 13.2268 28.8268 12.9724C27.1006 12.5 20.1957 12.5 20.1957 12.5C20.1957 12.5 13.2908 12.5 11.5646 12.9543C10.6379 13.2087 9.87468 13.9718 9.62029 14.9167C9.16602 16.6429 9.16602 20.2226 9.16602 20.2226C9.16602 20.2226 9.16602 23.8204 9.62029 25.5285C9.87468 26.4733 10.6197 27.2184 11.5646 27.4727C13.309 27.9452 20.1957 27.9452 20.1957 27.9452C20.1957 27.9452 27.1006 27.9452 28.8268 27.4909C29.7717 27.2365 30.5167 26.4915 30.7711 25.5466C31.2254 23.8204 31.2254 20.2408 31.2254 20.2408C31.2254 20.2408 31.2435 16.6429 30.7711 14.9167Z" fill="white"/>
<path d="M17.9971 16.9155V23.5296L23.739 20.2226L17.9971 16.9155Z" fill="#FF0000"/>
</svg>
