<svg width="146" height="25" viewBox="0 0 146 25" fill="none" xmlns="http://www.w3.org/2000/svg">
<g clip-path="url(#clip0_72_1201)">
<path d="M13.2729 25C20.6034 25 26.5456 19.4037 26.5456 12.5V3.75C26.5456 2.75544 26.1261 1.80161 25.3794 1.09835C24.6327 0.395088 23.6199 0 22.5638 0L13.9365 0V5.48375C13.9365 6.735 14.0175 8.03125 14.7143 9.09625C15.2132 9.85951 15.8805 10.5128 16.6711 11.0117C17.4616 11.5107 18.3568 11.8437 19.2961 11.9881L19.5502 12.0269C19.655 12.0606 19.746 12.1244 19.8104 12.2092C19.8748 12.294 19.9094 12.3957 19.9094 12.5C19.9094 12.6043 19.8748 12.706 19.8104 12.7908C19.746 12.8756 19.655 12.9394 19.5502 12.9731L19.2961 13.0119C17.9238 13.223 16.6566 13.8347 15.6734 14.7607C14.6901 15.6867 14.0406 16.8801 13.8164 18.1725L13.7753 18.4119C13.7395 18.5106 13.6718 18.5962 13.5817 18.6569C13.4916 18.7175 13.3837 18.7502 13.2729 18.7502C13.1622 18.7502 13.0542 18.7175 12.9641 18.6569C12.874 18.5962 12.8064 18.5106 12.7705 18.4119L12.7294 18.1725C12.576 17.288 12.2224 16.4449 11.6926 15.7003C11.1628 14.9558 10.4692 14.3273 9.65875 13.8575C8.52791 13.2013 7.15153 13.125 5.82293 13.125H0.0161133C0.363195 19.7381 6.16537 25 13.2729 25Z" fill="#82929A"/>
<path d="M0 11.875H5.82275C7.15135 11.875 8.52773 11.7987 9.65856 11.1425C10.5425 10.6296 11.2867 9.92876 11.8313 9.09625C12.5281 8.03125 12.6091 6.735 12.6091 5.48375V0H3.98182C2.92577 0 1.91298 0.395088 1.16625 1.09835C0.419512 1.80161 0 2.75544 0 3.75L0 11.875ZM30.8292 1.25C30.8292 1.58152 30.6894 1.89946 30.4405 2.13388C30.1916 2.3683 29.854 2.5 29.502 2.5C29.1499 2.5 28.8123 2.3683 28.5634 2.13388C28.3145 1.89946 28.1747 1.58152 28.1747 1.25C28.1747 0.918479 28.3145 0.600537 28.5634 0.366116C28.8123 0.131696 29.1499 0 29.502 0C29.854 0 30.1916 0.131696 30.4405 0.366116C30.6894 0.600537 30.8292 0.918479 30.8292 1.25ZM140.499 7.565C144.21 7.565 146 10.0056 146 12.8325V18.1419H142.117V13.4625C142.117 12.1812 141.621 11.1237 140.197 11.1237C138.774 11.1237 138.299 12.1812 138.299 13.4625V18.1412H134.416V13.4625C134.416 12.1812 133.942 11.1237 132.518 11.1237C131.094 11.1237 130.598 12.1812 130.598 13.4625V18.1412H126.715V12.8319C126.715 10.005 128.505 7.56437 132.216 7.56437C134.244 7.56437 135.71 8.31687 136.379 9.5575C137.091 8.31687 138.644 7.56375 140.499 7.56375V7.565ZM119.738 14.8875C120.989 14.8875 121.528 13.8094 121.528 12.5275V7.97125H125.411V12.975C125.411 15.965 123.556 18.4469 119.738 18.4469C115.919 18.4469 114.064 15.9656 114.064 12.975V7.97125H117.947V12.5275C117.947 13.8087 118.486 14.8875 119.738 14.8875ZM108.355 18.4669C105.918 18.4669 104.343 17.6737 103.415 16.1281L106.22 14.6431C106.608 15.2937 107.19 15.6194 108.161 15.6194C108.959 15.6194 109.325 15.355 109.325 15.0294C109.325 13.7887 103.631 15.05 103.631 11.1044C103.631 9.19187 105.356 7.64625 108.29 7.64625C110.857 7.64625 112.259 8.82562 112.885 9.965L110.081 11.47C109.844 10.86 109.11 10.4937 108.376 10.4937C107.816 10.4937 107.514 10.7175 107.514 11.0225C107.514 12.2837 113.208 11.1244 113.208 14.9481C113.208 17.0837 110.987 18.4669 108.355 18.4669ZM94.7892 22.82H90.9062V13.0362C90.9062 9.92375 93.3869 7.66625 96.8385 7.66625C100.204 7.66625 102.771 10.0869 102.771 13.0362C102.771 16.2906 100.484 18.4469 97.0542 18.4469C96.2558 18.4469 95.4581 18.2231 94.7892 17.8769V22.82ZM96.8385 15.0094C98.0682 15.0094 98.8878 14.1144 98.8878 13.0562C98.8878 11.9787 98.0682 11.1037 96.8385 11.1037C95.6088 11.1037 94.7892 11.9787 94.7892 13.0569C94.7892 14.1144 95.6088 15.0094 96.8385 15.0094ZM87.0167 6.89375C85.7438 6.89375 84.6873 5.89687 84.6873 4.69687C84.6873 3.49687 85.7438 2.5 87.0167 2.5C88.2895 2.5 89.3467 3.49687 89.3467 4.69687C89.3467 5.89687 88.2895 6.89375 87.0167 6.89375ZM85.0755 7.97125H88.9585V18.1419H85.0755V7.97125ZM77.6255 18.4469C74.2602 18.4469 71.6933 16.0062 71.6933 13.0362C71.6933 10.0869 74.2602 7.64625 77.6255 7.64625C80.9909 7.64625 83.5578 10.0869 83.5578 13.0362C83.5578 16.0062 80.9909 18.4469 77.6255 18.4469ZM77.6255 15.0094C78.8553 15.0094 79.6749 14.1144 79.6749 13.0562C79.6749 11.9787 78.8553 11.0837 77.6255 11.0837C76.3958 11.0837 75.5762 11.9787 75.5762 13.0562C75.5762 14.1144 76.3958 15.0094 77.6255 15.0094ZM64.3615 23.125C61.687 23.125 59.7452 22.0062 58.7531 20.0125L61.967 18.3856C62.3121 19.0775 62.9592 19.7894 64.2964 19.7894C65.6993 19.7894 66.6264 18.955 66.7346 17.4906C66.217 17.9181 65.3967 18.2431 64.1677 18.2431C61.1687 18.2431 58.7524 16.0669 58.7524 13.0156C58.7524 10.0669 61.32 7.66625 64.6853 7.66625C68.1369 7.66625 70.6176 9.92437 70.6176 13.0362V17.0637C70.6176 20.725 67.9205 23.125 64.3615 23.125ZM64.6203 14.8062C65.785 14.8062 66.6696 14.0531 66.6696 12.9344C66.6696 11.8362 65.7856 11.1037 64.6203 11.1037C63.4768 11.1037 62.571 11.8362 62.571 12.935C62.571 14.0537 63.4768 14.8056 64.6203 14.8056V14.8062ZM52.1665 18.4469C48.8012 18.4469 46.2336 16.0062 46.2336 13.0362C46.2336 10.0869 48.8012 7.64625 52.1665 7.64625C55.5311 7.64625 58.0987 10.0869 58.0987 13.0362C58.0987 16.0062 55.5318 18.4469 52.1665 18.4469ZM52.1665 15.0094C53.3962 15.0094 54.2158 14.1144 54.2158 13.0562C54.2158 11.9787 53.3962 11.0837 52.1665 11.0837C50.9367 11.0837 50.1172 11.9787 50.1172 13.0562C50.1172 14.1144 50.9367 15.0094 52.1665 15.0094ZM39.1632 4.4125V14.6837H45.5918V18.1419H38.6236C36.1649 18.1419 35.1727 16.9212 35.1727 14.9887V4.4125H39.1632Z" fill="#82929A"/>
</g>
<defs>
<clipPath id="clip0_72_1201">
<rect width="146" height="25" fill="white"/>
</clipPath>
</defs>
</svg>
