<svg width="72" height="31" viewBox="0 0 72 31" fill="none" xmlns="http://www.w3.org/2000/svg">
<g clip-path="url(#clip0_72_1204)">
<path d="M3.43446 3.67625C3.62166 2.75075 4.50726 2 5.40942 2H10.3141L6.23526 22.1173H1.33062C0.427738 22.1173 -0.152582 21.3673 0.0353376 20.441L3.43446 3.67625ZM19.7835 3.67625C19.9714 2.75075 20.8563 2 21.7585 2H26.6631L22.5843 22.1173H17.6797C16.7768 22.1173 16.1965 21.3673 16.3844 20.441L19.7835 3.67625ZM52.4823 3.67625C52.6695 2.75075 53.5537 2 54.4573 2H59.3619L55.2831 22.1173H50.3777C49.4749 22.1173 48.8953 21.3673 49.0832 20.441L52.4823 3.67625ZM28.2982 2H33.2029C34.1057 2 34.6861 2.75 34.4981 3.67625L31.099 20.441C30.9118 21.3673 30.0269 22.1173 29.1241 22.1173H24.2194L28.2982 2ZM60.997 2H65.9017C66.8045 2 67.3849 2.75 67.1969 3.67625L63.7971 20.441C63.6099 21.3673 62.7257 22.1173 61.8229 22.1173H56.9175L60.997 2ZM36.1333 3.67625C36.3205 2.75075 37.2046 2 38.1075 2H43.0129L38.9333 22.1173H34.0287C33.1258 22.1173 32.5455 21.3673 32.7341 20.441L36.1325 3.67625H36.1333ZM44.6473 2H49.5526C50.4555 2 51.0351 2.75 50.8472 3.67625L45.7489 28.8237C45.5602 29.7493 44.6761 30.5 43.7732 30.5H38.8678L44.6473 2ZM9.22974 15.4115H15.7695L14.75 20.441C14.5621 21.3673 13.6772 22.1173 12.775 22.1173H7.86966L9.22902 15.4122L9.22974 15.4115ZM32.0545 23.7943H38.5935L37.2341 30.5H32.3295C31.4259 30.5 30.8463 29.75 31.0342 28.8237L32.0545 23.7943ZM49.8053 25.3535L48.9773 29.438C48.9413 29.6135 48.8852 29.6615 48.7138 29.6615H48.3373C48.1659 29.6615 48.1285 29.6135 48.1645 29.438L48.9925 25.3535C49.0285 25.1788 49.0846 25.13 49.256 25.13H49.6325C49.8039 25.13 49.8413 25.1788 49.8053 25.3535ZM50.894 28.109H50.8169C50.7349 28.109 50.7061 28.133 50.6895 28.2178L50.4418 29.438C50.4058 29.6135 50.3489 29.6615 50.1783 29.6615H49.801C49.6304 29.6615 49.5929 29.6135 49.6282 29.438L50.4562 25.3535C50.4922 25.1788 50.5498 25.13 50.7205 25.13H51.4981C52.3937 25.13 52.7329 25.4622 52.5673 26.2775L52.429 26.9607C52.2634 27.7767 51.7897 28.109 50.894 28.109ZM51.1215 26.0847L50.9055 27.1543C50.8875 27.239 50.9062 27.263 50.989 27.263H51.1129C51.4009 27.263 51.5557 27.1423 51.6183 26.834L51.7047 26.405C51.7673 26.0975 51.6622 25.976 51.3735 25.976H51.2497C51.1676 25.976 51.1388 26 51.1215 26.0847ZM53.8129 26.7433L54.4249 27.4445C54.746 27.8067 54.7906 28.0242 54.7085 28.4292L54.6869 28.538C54.5321 29.2992 54.1635 29.7223 53.3089 29.7223C52.4549 29.7223 52.244 29.366 52.4413 28.3925L52.4657 28.2725C52.5017 28.097 52.5586 28.0482 52.7293 28.0482H53.1296C53.3009 28.0482 53.3384 28.097 53.3024 28.2717L53.2484 28.538C53.1994 28.7795 53.2743 28.8762 53.4802 28.8762C53.6869 28.8762 53.7992 28.7862 53.8438 28.5687L53.8669 28.4533C53.9014 28.2838 53.8827 28.1997 53.7056 28.0002L53.1296 27.3538C52.807 26.9975 52.766 26.7913 52.8481 26.3862L52.8747 26.2542C53.0295 25.493 53.3981 25.0692 54.2521 25.0692C55.1067 25.0692 55.3177 25.4263 55.1204 26.399L55.0959 26.5198C55.0599 26.6953 55.003 26.7433 54.8324 26.7433H54.4313C54.2607 26.7433 54.2233 26.6953 54.2585 26.5198L54.3125 26.2542C54.3615 26.012 54.2873 25.916 54.0807 25.916C53.8748 25.916 53.7617 26.006 53.7178 26.2235L53.6969 26.3263C53.6609 26.5018 53.6797 26.5865 53.8129 26.7433ZM57.2631 25.3535C57.2991 25.1788 57.3553 25.13 57.5266 25.13H57.9032C58.0745 25.13 58.112 25.1788 58.076 25.3535L57.4597 28.3933C57.2624 29.366 56.9074 29.7223 56.0528 29.7223C55.1989 29.7223 54.9879 29.366 55.1852 28.3925L55.8015 25.3535C55.8375 25.1788 55.8944 25.13 56.065 25.13H56.4423C56.6129 25.13 56.6504 25.1788 56.6151 25.3535L55.9693 28.538C55.9203 28.7795 56.0009 28.8762 56.2249 28.8762C56.4423 28.8762 56.5683 28.7795 56.6173 28.538L57.2631 25.3535ZM59.7154 27.8127C59.7176 27.8615 59.7327 27.8728 59.7622 27.8728C59.791 27.8728 59.8119 27.8615 59.8335 27.8127L60.8516 25.2875C60.9013 25.16 60.9603 25.13 61.1079 25.13H61.6796C61.8502 25.13 61.8877 25.1788 61.8524 25.3535L61.0244 29.438C60.9884 29.6135 60.9308 29.6615 60.7601 29.6615H60.4894C60.3188 29.6615 60.2806 29.6135 60.3166 29.438L60.7141 27.4805C60.7249 27.4265 60.7155 27.4137 60.6802 27.4137C60.6565 27.4137 60.6298 27.4265 60.6154 27.4685L59.7932 29.4627C59.7341 29.6075 59.6585 29.6615 59.4879 29.6615H59.3281C59.1509 29.6615 59.0977 29.6075 59.0977 29.4627L59.0775 27.4678C59.0739 27.4258 59.0645 27.4137 59.035 27.4137C58.9997 27.4137 58.9853 27.4265 58.9745 27.4805L58.5778 29.438C58.5418 29.6135 58.4857 29.6615 58.3143 29.6615H58.0436C57.8722 29.6615 57.8348 29.6135 57.8708 29.438L58.6988 25.3535C58.7348 25.1788 58.7917 25.13 58.9623 25.13H59.4519C59.6578 25.13 59.7241 25.1788 59.7226 25.3903L59.7147 27.8127H59.7154ZM72.0001 2C72.0001 2.82875 71.3593 3.5 70.5694 3.5C70.3809 3.49941 70.1944 3.46014 70.0204 3.38443C69.8465 3.30872 69.6886 3.19805 69.5558 3.05875C69.4229 2.91945 69.3177 2.75425 69.2462 2.57259C69.1746 2.39093 69.1381 2.19636 69.1388 2C69.1388 1.17125 69.7796 0.5 70.5694 0.5C71.3593 0.5 72.0001 1.17125 72.0001 2Z" fill="#82929A"/>
</g>
<defs>
<clipPath id="clip0_72_1204">
<rect width="72" height="30" fill="white" transform="translate(0 0.5)"/>
</clipPath>
</defs>
</svg>
