<svg width="90" height="35" viewBox="0 0 90 35" fill="none" xmlns="http://www.w3.org/2000/svg">
<g clip-path="url(#clip0_72_1206)">
<path d="M41.2593 30.8334H43.603V21.8084H41.2593V30.8334ZM41.2593 20.4009H43.603V18.2546H41.2593V20.4009Z" fill="#82929A"/>
<path d="M45.1133 33.7889H47.4571V29.813H47.4916C47.9913 30.587 48.8013 31.0972 50.0421 31.0972C52.317 31.0972 53.868 29.25 53.868 26.3296C53.868 23.5147 52.3686 21.562 50.0249 21.562C48.8185 21.562 47.9913 22.1426 47.4226 22.9342H47.3709V21.8083H45.1133V33.7889ZM49.5424 29.1092C48.1465 29.1092 47.4054 28.0361 47.4054 26.4C47.4054 24.7815 47.9913 23.4972 49.4562 23.4972C50.9038 23.4972 51.4897 24.6935 51.4897 26.4C51.4897 28.1065 50.7315 29.1092 49.5424 29.1092Z" fill="#82929A"/>
<path d="M58.5434 31.0972C60.7492 31.0972 62.2658 30.0065 62.2658 28.1944C62.2658 26.0833 60.6286 25.6611 59.1465 25.3445C57.8884 25.0806 56.7165 25.0101 56.7165 24.2361C56.7165 23.5852 57.3197 23.2333 58.2332 23.2333C59.2327 23.2333 59.8359 23.5852 59.9392 24.5528H62.059C61.8867 22.7407 60.5942 21.562 58.2676 21.562C56.2513 21.562 54.6657 22.4944 54.6657 24.4471C54.6657 26.4176 56.2168 26.8574 57.8023 27.1741C59.0086 27.4203 60.1288 27.5083 60.1288 28.3704C60.1288 29.0037 59.5429 29.4083 58.5088 29.4083C57.4576 29.4083 56.7338 28.9509 56.5787 27.9129H54.4072C54.5451 29.8306 55.9755 31.0972 58.5434 31.0972Z" fill="#82929A"/>
<path d="M71.1646 30.8334V21.8083H68.8209V27.0157C68.8209 28.212 68.1488 29.0565 67.0458 29.0565C66.0463 29.0565 65.5809 28.4759 65.5809 27.4203V21.8083H63.2544V27.825C63.2544 29.7954 64.3574 31.0797 66.322 31.0797C67.5628 31.0797 68.2521 30.6046 68.8554 29.7778H68.9071V30.8334H71.1646Z" fill="#82929A"/>
<path d="M72.6807 30.8333H75.0245V25.5907C75.0245 24.3944 75.6621 23.6204 76.61 23.6204C77.4717 23.6204 77.9715 24.1481 77.9715 25.1685V30.8333H80.3152V25.5907C80.3152 24.3944 80.9184 23.6204 81.9007 23.6204C82.7624 23.6204 83.2622 24.1481 83.2622 25.1685V30.8333H85.6059V24.7639C85.6059 22.7935 84.5547 21.562 82.6935 21.562C81.5733 21.562 80.6427 22.1602 80.0395 23.1453H80.005C79.5741 22.1953 78.678 21.562 77.5578 21.562C76.3342 21.562 75.4725 22.1953 74.99 23.0222H74.9383V21.8083H72.6807V30.8333Z" fill="#82929A"/>
<path d="M41.2939 15.3756H43.6377V2.79688H41.2939V15.3756Z" fill="#82929A"/>
<path d="M49.3686 15.6395C52.1088 15.6395 53.9873 13.5635 53.9873 10.8719C53.9873 8.18018 52.1088 6.10425 49.3686 6.10425C46.6285 6.10425 44.75 8.18018 44.75 10.8719C44.75 13.5635 46.6285 15.6395 49.3686 15.6395ZM49.3686 13.8098C47.921 13.8098 47.1283 12.6311 47.1283 10.8719C47.1283 9.11258 47.921 7.91629 49.3686 7.91629C50.799 7.91629 51.609 9.11258 51.609 10.8719C51.609 12.6311 50.799 13.8098 49.3686 13.8098Z" fill="#82929A"/>
<path d="M58.9717 18.4543C60.2815 18.4543 61.4189 18.1377 62.1599 17.4339C62.8147 16.8182 63.2112 15.9561 63.2112 14.6895V6.35054H60.9535V7.30055H60.9191C60.3848 6.54406 59.5748 6.10425 58.4719 6.10425C56.2315 6.10425 54.646 7.82833 54.646 10.52C54.646 13.2469 56.5762 14.8302 58.5409 14.8302C59.6611 14.8302 60.3331 14.3728 60.8502 13.7747H60.9019V14.7598C60.9019 15.9913 60.2642 16.6422 58.9372 16.6422C57.8515 16.6422 57.3517 16.2024 57.1621 15.6395H54.8356C55.0769 17.3987 56.559 18.4543 58.9717 18.4543ZM58.9372 12.9126C57.7309 12.9126 56.9381 12.0154 56.9381 10.4848C56.9381 8.97188 57.7309 8.02185 58.92 8.02185C60.3331 8.02185 61.0225 9.14775 61.0225 10.4673C61.0225 11.8043 60.4193 12.9126 58.9372 12.9126Z" fill="#82929A"/>
<path d="M68.9077 15.6395C71.6478 15.6395 73.5263 13.5635 73.5263 10.8719C73.5263 8.18018 71.6478 6.10425 68.9077 6.10425C66.1676 6.10425 64.2891 8.18018 64.2891 10.8719C64.2891 13.5635 66.1676 15.6395 68.9077 15.6395ZM68.9077 13.8098C67.4601 13.8098 66.6673 12.6311 66.6673 10.8719C66.6673 9.11258 67.4601 7.91629 68.9077 7.91629C70.3381 7.91629 71.1481 9.11258 71.1481 10.8719C71.1481 12.6311 70.3381 13.8098 68.9077 13.8098Z" fill="#82929A"/>
<path d="M75.5811 11.9275H85.7143V9.86914H75.5811V11.9275Z" fill="#82929A"/>
<path d="M86.4575 20.2753C86.4575 19.8704 86.779 19.5422 87.1758 19.5422H88.6115C89.0084 19.5422 89.3298 19.8704 89.3298 20.2753C89.3298 20.6801 89.0084 21.0083 88.6115 21.0083H87.1758C86.779 21.0083 86.4575 20.6801 86.4575 20.2753Z" fill="#82929A"/>
<path fill-rule="evenodd" clip-rule="evenodd" d="M17.5901 0C27.0579 0 34.733 7.83501 34.733 17.5C34.733 27.165 27.0579 35 17.5901 35C8.12238 35 0.447266 27.165 0.447266 17.5C0.447266 7.83501 8.12238 0 17.5901 0ZM16.9705 1.30952C15.0148 1.59048 13.1526 3.19469 11.707 5.87773C11.2877 6.65598 10.9094 7.51578 10.5796 8.44414C12.5452 7.9399 14.7045 7.64262 16.9705 7.59664V1.30952ZM9.1308 8.86445C9.54077 7.55088 10.0424 6.34235 10.6212 5.26807C11.3378 3.93802 12.1882 2.78946 13.1464 1.9073C7.93595 3.45208 3.82889 7.64469 2.31564 12.9637C3.17979 11.9856 4.30492 11.1174 5.60783 10.3859C6.66018 9.79501 7.84404 9.28296 9.1308 8.86445ZM8.71903 10.3435C8.22512 12.35 7.93391 14.5542 7.88887 16.8675H1.73005C2.00529 14.871 3.57677 12.97 6.20504 11.4944C6.96741 11.0663 7.80966 10.6801 8.71903 10.3435ZM9.1284 16.8675C9.17957 14.343 9.53555 11.973 10.1246 9.87893C12.1759 9.27763 14.4976 8.91415 16.9705 8.86191V11.5944C16.0479 14.0054 14.1663 15.926 11.8045 16.8675H9.1284ZM7.88887 18.1325H1.73005C2.00529 20.129 3.57677 22.03 6.20504 23.5056C6.96741 23.9337 7.80966 24.3199 8.71903 24.6565C8.22512 22.65 7.93391 20.4458 7.88887 18.1325ZM10.1246 25.1211C9.53555 23.027 9.17957 20.657 9.1284 18.1325H11.8045C14.1663 19.0739 16.048 20.9946 16.9705 23.4056V26.1381C14.4976 26.0859 12.1759 25.7224 10.1246 25.1211ZM9.1308 26.1355C7.84404 25.717 6.66018 25.205 5.60783 24.6141C4.30492 23.8826 3.17979 23.0144 2.31564 22.0363C3.82889 27.3553 7.93595 31.548 13.1464 33.0927C12.1882 32.2105 11.3378 31.062 10.6212 29.7319C10.0424 28.6577 9.54077 27.4491 9.1308 26.1355ZM16.9705 33.6905C15.0148 33.4095 13.1526 31.8053 11.707 29.1223C11.2877 28.344 10.9094 27.4842 10.5796 26.5559C12.5452 27.0601 14.7045 27.3574 16.9705 27.4033V33.6905ZM22.0338 33.0927C22.992 32.2105 23.8425 31.062 24.5591 29.7319C25.1379 28.6577 25.6395 27.4491 26.0494 26.1355C27.3362 25.717 28.5201 25.205 29.5725 24.6141C30.8753 23.8826 32.0005 23.0144 32.8646 22.0363C31.3514 27.3553 27.2443 31.548 22.0338 33.0927ZM24.6006 26.5559C24.2709 27.4842 23.8925 28.344 23.4732 29.1223C22.0277 31.8053 20.1655 33.4095 18.2097 33.6905V27.4033C20.4758 27.3574 22.635 27.0601 24.6006 26.5559ZM26.4612 24.6565C27.3705 24.3199 28.2129 23.9337 28.9752 23.5056C31.6035 22.03 33.1749 20.129 33.4502 18.1325H27.2913C27.2463 20.4458 26.9551 22.65 26.4612 24.6565ZM26.0519 18.1325C26.0007 20.657 25.6447 23.027 25.0557 25.1211C23.0043 25.7224 20.6827 26.0859 18.2097 26.1381V23.4076C19.1319 20.9957 21.014 19.0742 23.3765 18.1325H26.0519ZM27.2913 16.8675H33.4502C33.1749 14.871 31.6035 12.97 28.9752 11.4944C28.2129 11.0663 27.3705 10.6801 26.4612 10.3435C26.9551 12.35 27.2463 14.5542 27.2913 16.8675ZM25.0557 9.87893C25.6447 11.973 26.0007 14.343 26.0519 16.8675H23.3765C21.014 15.9258 19.1319 14.0043 18.2097 11.5924V8.86191C20.6827 8.91415 23.0043 9.27763 25.0557 9.87893ZM26.0494 8.86445C27.3362 9.28296 28.5201 9.79501 29.5725 10.3859C30.8753 11.1174 32.0005 11.9856 32.8646 12.9637C31.3514 7.64469 27.2443 3.45208 22.0338 1.9073C22.992 2.78946 23.8425 3.93802 24.5591 5.26807C25.1379 6.34235 25.6395 7.55088 26.0494 8.86445ZM18.2097 1.30952C20.1655 1.59048 22.0277 3.19469 23.4732 5.87773C23.8925 6.65598 24.2709 7.51578 24.6006 8.44414C22.635 7.9399 20.4758 7.64262 18.2097 7.59664V1.30952Z" fill="#82929A"/>
</g>
<defs>
<clipPath id="clip0_72_1206">
<rect width="90" height="35" fill="white"/>
</clipPath>
</defs>
</svg>
