<svg width="107" height="25" viewBox="0 0 107 25" fill="none" xmlns="http://www.w3.org/2000/svg">
<g clip-path="url(#clip0_72_1219)">
<path d="M32.2012 17.4721H39.7684V15.3292H34.8907V7.25781H32.2012V17.4721Z" fill="#82929A"/>
<path d="M44.2518 16.0435C43.173 16.0435 42.6107 15.1578 42.6107 13.8292C42.6107 12.5006 43.173 11.6006 44.2518 11.6006C45.3307 11.6006 45.9081 12.5006 45.9081 13.8292C45.9081 15.1578 45.3307 16.0435 44.2518 16.0435ZM44.267 17.7006C46.7742 17.7006 48.4153 16.0292 48.4153 13.8292C48.4153 11.6292 46.7742 9.95776 44.267 9.95776C41.775 9.95776 40.1035 11.6292 40.1035 13.8292C40.1035 16.0292 41.775 17.7006 44.267 17.7006Z" fill="#82929A"/>
<path d="M52.755 20.0007C53.9099 20.0007 54.928 19.7579 55.6117 19.1865C56.2347 18.6579 56.645 17.8579 56.645 16.7579V10.1579H54.2746V10.9436H54.2442C53.7883 10.3293 53.0893 9.9436 52.056 9.9436C50.1262 9.9436 48.7891 11.4579 48.7891 13.6007C48.7891 15.8436 50.415 17.0722 52.1624 17.0722C53.1045 17.0722 53.6971 16.715 54.153 16.2293H54.2138V16.9579C54.2138 17.8436 53.7731 18.3579 52.7246 18.3579C51.9041 18.3579 51.4938 18.0293 51.3571 17.6436H48.9562C49.1993 19.1722 50.6125 20.0007 52.755 20.0007ZM52.7398 15.3436C51.8129 15.3436 51.2051 14.6293 51.2051 13.5293C51.2051 12.415 51.8129 11.7007 52.7398 11.7007C53.7731 11.7007 54.3201 12.5293 54.3201 13.515C54.3201 14.5436 53.8187 15.3436 52.7398 15.3436Z" fill="#82929A"/>
<path d="M61.5194 16.0435C60.4405 16.0435 59.8783 15.1578 59.8783 13.8292C59.8783 12.5006 60.4405 11.6006 61.5194 11.6006C62.5983 11.6006 63.1757 12.5006 63.1757 13.8292C63.1757 15.1578 62.5983 16.0435 61.5194 16.0435ZM61.5346 17.7006C64.0418 17.7006 65.6829 16.0292 65.6829 13.8292C65.6829 11.6292 64.0418 9.95776 61.5346 9.95776C59.0426 9.95776 57.3711 11.6292 57.3711 13.8292C57.3711 16.0292 59.0426 17.7006 61.5346 17.7006Z" fill="#82929A"/>
<path d="M66.4058 17.4721H68.8826V10.1578H66.4058V17.4721ZM66.4058 9.14353H68.8826V7.25781H66.4058V9.14353Z" fill="#82929A"/>
<path d="M69.9575 19.8865H72.4343V16.715H72.4647C72.951 17.3293 73.6652 17.7007 74.668 17.7007C76.7042 17.7007 78.0566 16.1865 78.0566 13.815C78.0566 11.615 76.7954 9.9436 74.7288 9.9436C73.6652 9.9436 72.9054 10.3865 72.3736 11.0436H72.328V10.1579H69.9575V19.8865ZM74.0299 15.9007C72.9662 15.9007 72.3584 15.0865 72.3584 13.9007C72.3584 12.715 72.9054 11.815 73.9843 11.815C75.0479 11.815 75.5494 12.6436 75.5494 13.9007C75.5494 15.1436 74.972 15.9007 74.0299 15.9007Z" fill="#82929A"/>
<path d="M82.0893 17.7007C84.1254 17.7007 85.6298 16.8722 85.6298 15.2722C85.6298 13.4007 84.0191 13.0722 82.6515 12.8579C81.6638 12.6865 80.7825 12.615 80.7825 12.1007C80.7825 11.6436 81.2535 11.4293 81.8614 11.4293C82.5451 11.4293 83.0162 11.6293 83.1074 12.2865H85.3867C85.2651 10.8436 84.0799 9.9436 81.8766 9.9436C80.0379 9.9436 78.5184 10.7436 78.5184 12.2865C78.5184 14.0007 79.9619 14.3436 81.3143 14.5579C82.3476 14.7293 83.2897 14.8007 83.2897 15.4579C83.2897 15.9293 82.8187 16.1865 82.0741 16.1865C81.2535 16.1865 80.7369 15.8293 80.6457 15.1007H78.3057C78.3816 16.715 79.81 17.7007 82.0893 17.7007Z" fill="#82929A"/>
<path d="M88.9944 17.6865C90.0733 17.6865 90.7571 17.2865 91.3193 16.5722H91.3649V17.4722H93.7353V10.158H91.2585V14.2437C91.2585 15.1151 90.7419 15.7151 89.891 15.7151C89.1008 15.7151 88.7209 15.2722 88.7209 14.4722V10.158H86.2593V14.958C86.2593 16.5865 87.2014 17.6865 88.9944 17.6865Z" fill="#82929A"/>
<path d="M94.812 17.4722H97.2888V13.3722C97.2888 12.5007 97.7447 11.8865 98.5197 11.8865C99.2642 11.8865 99.6137 12.3436 99.6137 13.1293V17.4722H102.091V13.3722C102.091 12.5007 102.531 11.8865 103.321 11.8865C104.066 11.8865 104.415 12.3436 104.415 13.1293V17.4722H106.892V12.715C106.892 11.0722 106.011 9.9436 104.248 9.9436C103.245 9.9436 102.41 10.3436 101.802 11.2293H101.771C101.376 10.4436 100.601 9.9436 99.5833 9.9436C98.4589 9.9436 97.7143 10.4436 97.2281 11.2007H97.1825V10.1579H94.812V17.4722Z" fill="#82929A"/>
<path fill-rule="evenodd" clip-rule="evenodd" d="M13.096 0.57251C20.2263 0.57251 26.0065 6.00672 26.0065 12.7102C26.0065 19.4137 20.2263 24.8479 13.096 24.8479C5.96576 24.8479 0.185547 19.4137 0.185547 12.7102C0.185547 6.00672 5.96576 0.57251 13.096 0.57251ZM25.511 12.7102C25.511 6.26404 19.9526 1.03836 13.096 1.03836C12.5429 1.03836 11.9984 1.07236 11.4644 1.13825C11.8094 1.1099 12.1585 1.09542 12.5113 1.09542C19.0631 1.09542 24.3744 6.0888 24.3744 12.2484C24.3744 18.408 19.0631 23.4014 12.5113 23.4014C6.30849 23.4014 1.21755 18.9259 0.692792 13.2223C0.977862 19.4308 6.42191 24.382 13.096 24.382C19.9526 24.382 25.511 19.1564 25.511 12.7102ZM23.8789 12.2484C23.8789 6.34606 18.7895 1.56127 12.5113 1.56127C12.0015 1.56127 11.4996 1.59282 11.0076 1.65394C11.3105 1.62998 11.617 1.61775 11.9266 1.61775C17.9 1.61775 22.7423 6.17029 22.7423 11.7861C22.7423 17.4019 17.9 21.9544 11.9266 21.9544C6.27862 21.9544 1.64177 17.8843 1.15339 12.6937C1.4017 18.3896 6.39183 22.9356 12.5113 22.9356C18.7895 22.9356 23.8789 18.1508 23.8789 12.2484ZM11.9266 2.08361C17.6263 2.08361 22.2468 6.42755 22.2468 11.7861C22.2468 17.1446 17.6263 21.4885 11.9266 21.4885C6.35897 21.4885 1.82105 17.3435 1.61379 12.1568C2.06126 16.8383 6.24584 20.5073 11.3419 20.5073C16.7365 20.5073 21.1097 16.3959 21.1097 11.3243C21.1097 6.25261 16.7365 2.14125 11.3419 2.14125C11.0629 2.14125 10.7865 2.15225 10.5134 2.17382C10.9754 2.11434 11.4472 2.08361 11.9266 2.08361ZM20.6141 11.3243C20.6141 6.50993 16.4628 2.6071 11.3419 2.6071C10.9093 2.6071 10.4835 2.63496 10.0666 2.68887C10.2942 2.67212 10.5243 2.66359 10.7565 2.66359C15.5727 2.66359 19.4769 6.3341 19.4769 10.862C19.4769 15.3898 15.5727 19.0603 10.7565 19.0603C6.22353 19.0603 2.49834 15.8086 2.07609 11.6509C2.25877 16.3139 6.33732 20.0415 11.3419 20.0415C16.4628 20.0415 20.6141 16.1387 20.6141 11.3243ZM10.7565 3.12944C15.299 3.12944 18.9814 6.59142 18.9814 10.862C18.9814 15.1325 15.299 18.5945 10.7565 18.5945C6.3036 18.5945 2.67716 15.2676 2.53601 11.1134C2.91724 14.7623 6.19042 17.6133 10.1718 17.6133C14.4096 17.6133 17.8448 14.3836 17.8448 10.3996C17.8448 6.41559 14.4096 3.18592 10.1718 3.18592C9.97754 3.18592 9.78487 3.19271 9.59417 3.20606C9.97393 3.15556 10.362 3.12944 10.7565 3.12944ZM17.3493 10.3996C17.3493 6.67285 14.1358 3.65177 10.1718 3.65177C9.81001 3.65177 9.45444 3.67694 9.10697 3.72553C9.26558 3.71485 9.4257 3.70941 9.58721 3.70941C13.246 3.70941 16.2122 6.49797 16.2122 9.93779C16.2122 13.3777 13.246 16.1662 9.58721 16.1662C6.15863 16.1662 3.33839 13.7177 2.99692 10.5791C3.09815 14.2228 6.27173 17.1474 10.1718 17.1474C14.1358 17.1474 17.3493 14.1263 17.3493 10.3996ZM9.58721 4.17527C12.9724 4.17527 15.7166 6.75523 15.7166 9.93779C15.7166 13.1204 12.9724 15.7003 9.58721 15.7003C6.24506 15.7003 3.52769 13.1856 3.45906 10.059C3.7678 12.6804 6.1319 14.7192 9.00251 14.7192C12.0829 14.7192 14.5801 12.3715 14.5801 9.47547C14.5801 6.57946 12.0829 4.23175 9.00251 4.23175C8.88468 4.23175 8.76774 4.23518 8.65175 4.24195C8.95673 4.19804 9.26912 4.17527 9.58721 4.17527ZM14.0846 9.47547C14.0846 6.83672 11.8093 4.6976 9.00251 4.6976C8.72064 4.6976 8.44414 4.71917 8.17475 4.76065C8.25503 4.75668 8.33581 4.75466 8.41717 4.75466C10.9191 4.75466 12.9473 6.66148 12.9473 9.01368C12.9473 11.3659 10.9191 13.2727 8.41717 13.2727C6.10371 13.2727 4.19529 11.6424 3.92084 9.53713C3.95598 12.1475 6.21766 14.2533 9.00251 14.2533C11.8093 14.2533 14.0846 12.1142 14.0846 9.47547ZM8.41717 5.22051C10.6454 5.22051 12.4518 6.91874 12.4518 9.01368C12.4518 11.1086 10.6454 12.8068 8.41717 12.8068C6.18886 12.8068 4.38247 11.1086 4.38247 9.01368C4.38247 9.00868 4.38248 9.00362 4.3825 8.99862C4.61449 10.5951 6.07068 11.8251 7.83247 11.8251C9.75562 11.8251 11.3147 10.3594 11.3147 8.55136C11.3147 6.74327 9.75562 5.27759 7.83247 5.27759C7.78898 5.27759 7.74567 5.27833 7.70255 5.27982C7.93447 5.24085 8.17329 5.22051 8.41717 5.22051ZM10.8191 8.55136C10.8191 7.00059 9.48198 5.74343 7.83247 5.74343C6.18296 5.74343 4.84578 7.00059 4.84578 8.55136C4.84578 10.1021 6.18296 11.3592 7.83247 11.3592C9.48198 11.3592 10.8191 10.1021 10.8191 8.55136Z" fill="#82929A"/>
</g>
<defs>
<clipPath id="clip0_72_1219">
<rect width="107" height="25" fill="white"/>
</clipPath>
</defs>
</svg>
